<svg fill="none" stroke-linecap="square" viewBox="0 0 512 512" xmlns="http://www.w3.org/2000/svg" xmlns:xlink="http://www.w3.org/1999/xlink"><rect fill="#111" height="512" rx="15%" width="512"/><g id="a" transform="matrix(19 11 0 22 76 142)"><path d="m.5.5h9v9h-9" fill="#432"/><path d="m2 8v1h2v-1h5v-1h-2v-2" stroke="#864"/><path d="m1 8v-1h2v-1h1m1 3h2v-1h-1v-4m1 2h1v1m1-3v1" stroke="#643"/><path d="m1 7h1m2 0h1" stroke="#a75"/><path d="m4 4v-3h4v2h-1v-1h-3v1h-2v1" stroke="#593"/><path d="m2 1h1m6 0v1" stroke="#6a4"/><path d="m3 2h1" stroke="#7c5"/><path d="m1 1v1h1" stroke="#9c6"/></g><use opacity=".5" transform="matrix(-1 0 0 1 513 0)" xlink:href="#a"/><g transform="matrix(-19 11 -19 -11 447 159)"><path d="m.5.5h9v9h-9" fill="#7b4"/><path d="m3 4v2h-2v2h3v1h2v-2m-4-4h4v-2h-1v1h3m-1 2v1h-3m5-1v2h-1v3" stroke="#8c5"/><path d="m1 3v2m4 0v1m0 2v1m2-7v1m1 4h1" stroke="#ad7"/></g></svg>